<?xml version="1.0" encoding="UTF-8"?><svg xmlns="http://www.w3.org/2000/svg" viewBox="0 0 277.24 332.45"><defs><style>.e{fill:#012f3f;}</style></defs><g id="a"/><g id="b"><g id="c"><path id="d" class="e" d="M273.47,228.14c-6.38,33.91-22.76,63.49-49.82,85.46-6.4,5.49-13.34,10.4-20.17,15.47-.5,.37-.99,.71-1.52,.99-3.81,2.25-8.19,2.88-12.29,2.01-4-.82-7.73-3.09-10.36-6.64-7.93-10.46-1.09-26.04,11.85-27.43,26.05-3.13,48.46-20.05,58.79-44.14,5.3-12.14,8.4-25.69,10.91-38.77,4.8-26.2-1.6-53.57-14.49-76.66-4.84-8.85-10.61-17.46-16.89-25.43-6.67-8.58-12.95-17.36-18.95-26.49-8.36-12.66-15.76-25.77-21.48-39.81-10.52,11.35-19.99,23.67-27.53,37.16,11.2,27.26,16.43,57.12,10.31,86.14-4.12,21.18-12.6,41.15-23.65,59.59-4.84,8.34-15.53,11.2-23.87,6.37-11.6-6.5-11.5-23.82,.01-30.25,14.31-8.83,24.29-23.82,30.02-39.42,11.89-31.74-.89-70.38-19.97-96.72-5.77-7.76-12.33-14.99-19.88-20.94-.16,.69-.31,1.4-.48,2.09-5.82,25.99-13.67,52.15-28.7,74.72-6.38,9.35-14.01,17.79-21.48,26.26-16.56,18.1-36.3,34.28-44.44,58.02-7.59,28.19,3.4,63.83,28.38,80.11,11.29,7.23,24.59,11.03,38.13,9.56,9.01-1.06,17.19,5.39,18.23,14.41,1.27,9.13-5.77,16.96-14.1,18.23-2.71,.41-5.56,.12-8.31-1.05l-1.18-.47-4.49-1.82C37.2,313.96,7.26,283.95,1.07,241.73c-1.74-12.19-1.54-24.86,1.96-36.96,3.73-11.54,10.12-22.37,17.3-32.1,9.14-12.07,19.5-22.16,28.71-33.57,6.53-8,12.66-16.31,18.11-25.05,12.16-20.16,17.47-44.08,20.91-67.54,1.02-6.98,1.82-14.01,2.76-21.41l4.09-21.15c5.23,3.48,19.83,12.33,23.97,16.41,12.62,11.44,22.59,25.2,31.12,39.79,.07,.1,.12,.22,.18,.33,8.21-18.18,20.36-34.69,36.06-47.09,.01,0,17.5-13.39,17.5-13.39l3.32,20.73c2.33,19.76,10.2,38.39,19.89,55.76,6.74,12.15,14.86,23.71,22.57,35.3,12.06,18.56,21.41,39.21,25.52,61.08,3.51,18.27,2.6,37.22-1.6,55.27Z"/></g></g></svg>