<?xml version="1.0" encoding="UTF-8"?><svg xmlns="http://www.w3.org/2000/svg" viewBox="0 0 585.85 153.26"><defs><style>.e{fill:#012f3f;}</style></defs><g id="a"/><g id="b"><g id="c"><g id="d"><g><path class="e" d="M167.05,151.59c-10.04-3.94-19.51-10.13-25.76-19.1-7.84-11.28-11.35-26.54-6.18-39.73,1.81-4.07,4.06-8.07,6.74-11.61,4.09-5.47,8.77-10.01,12.95-15.14,2.95-3.57,5.74-7.35,8.22-11.26,7.22-11.95,9.01-26.32,10.69-40.11l1.21-9.54c2.44,1.5,9.6,5.48,11.47,7.39,17.07,16.11,28.84,44.12,23.87,67.53-1.86,9.53-5.67,18.43-10.58,26.78-2.14,3.79-6.95,5.13-10.74,3s-5.13-6.95-3-10.74c.7-1.25,1.73-2.25,2.88-2.93,3.22-1.88,5.89-4.72,8.19-7.73,4.53-6.12,7.28-13.62,7.47-21.26-.01-11.59-4.4-23.13-11.12-32.42-3.39-4.52-7.44-8.74-12.22-11.75-1.26-.81-3.02-1.8-4.36-1.92l9.53-4.56c-3.23,15.07-6.75,32.35-16.61,45.59-4.63,5.92-9.78,11.62-15.07,16.88-5.46,5.61-10.54,11.55-13.12,18.98-1.98,7.23-1.03,15.18,1.72,22.16,4.14,11.43,16.02,19.63,28.27,18.29,4.06-.46,7.73,2.47,8.19,6.53,.72,5.44-5.07,9.84-10.1,7.71l-2.52-1.02h0Z"/><path class="e" d="M218.97,137.74c15.69-2.01,25.9-13.42,29.43-28.39,1.48-5.81,2.88-11.82,2.73-17.86-.21-13.74-6.5-26.55-14.86-37.19-9.16-11.98-17.55-24.57-21.43-39.47l9.4,3.31c-7.5,7.06-14.33,14.99-19.23,24.11-.24,.67-.73,1.03-1.57,1.1-1.39,.24-3.48-.14-4.62-1.08-.82-.63-1.28-1.08-1.59-1.82-.17-.49,.02-.84,.11-1.23l.7-2.28c3.5-10.67,9.87-20.56,18.72-27.56l7.9-6.04c.97,5.31,1.7,12.82,3.27,17.91,1.73,5.74,4.29,11.28,7.2,16.59,2.62,4.7,7.17,11.35,10.24,15.88,5.39,8.44,9.56,17.68,11.44,27.6,1.59,8.24,1.16,16.79-.71,24.93-1.02,4.85-2.28,9.64-4.24,14.26-5.2,13.31-15.82,23.31-27.42,31.32-3.49,2.51-8.36,1.71-10.87-1.78-3.49-4.68-.36-11.69,5.4-12.28h0Z"/></g><g><path class="e" d="M343.12,16.4l-1.66,5.27c-7.37,.46-12.25,1.37-14.67,2.73-1.56,.91-2.87,2.28-3.91,4.1-1.23,2.34-4.84,14.77-10.82,37.28-1.95,7.42-6.92,27.69-14.91,60.8,4.55,1.5,10.31,2.15,17.27,1.95l-1.56,4.69c-2.08,.06-6.25-.2-12.49-.78-4.49-.39-9.73-.59-15.71-.59-8.26,0-15.84,.62-22.74,1.85l1.17-5.17c7.16-1.11,12.59-2.54,16.3-4.29,.91-.45,1.63-1.01,2.15-1.66,.98-1.17,2.03-3.53,3.17-7.08s5.03-18.04,11.66-43.48c1.95-7.35,5.92-23.42,11.91-48.21-4.49-.13-9.99,.49-16.49,1.85l1.85-5.37c2.73-.71,5.53-1.22,8.39-1.51,2.86-.29,9.34-.57,19.42-.83,9.43-.26,16.66-.78,21.67-1.56Z"/><path class="e" d="M421.1,126.29l-1.37,5.56c-4.49,.98-8.17,1.46-11.03,1.46s-7.26-.29-13.57-.88c-4.75-.39-9.01-.59-12.79-.59-6.51,0-13.21,.59-20.11,1.76l1.37-5.37c6.57-.65,11.35-2.02,14.35-4.1,2.15-1.5,3.98-4.05,5.51-7.66,1.53-3.61,4.99-16.22,10.39-37.82l12.49-51.73,.68-2.44c-3.84-.19-6.73-.29-8.69-.29-12.04,0-21.59,1.3-28.65,3.91-7.06,2.61-12.36,6.39-15.91,11.34-3.55,4.95-5.32,10.3-5.32,16.03,0,2.02,.36,3.88,1.07,5.57,.52,1.17,1.95,3.07,4.29,5.67,2.21,2.41,3.32,4.63,3.32,6.65,0,1.76-.65,3.26-1.95,4.5-1.3,1.24-2.86,1.86-4.69,1.86-2.73,0-4.94-1.3-6.64-3.9-2.47-3.84-3.71-8.72-3.71-14.64,0-7.94,2.45-15.65,7.37-23.13,4.91-7.48,11.66-13.27,20.25-17.37s19.03-6.15,31.33-6.15c5.86,0,15.19,.85,28.01,2.54,9.11,1.17,15.71,1.76,19.81,1.76s6.99-.68,8.69-2.05c1.69-1.37,2.54-3.19,2.54-5.47,0-.45-.1-1.37-.29-2.73-.19-1.23-.29-2.05-.29-2.44,0-1.76,.58-3.22,1.76-4.39,1.17-1.17,2.57-1.76,4.2-1.76,1.95,0,3.56,.72,4.83,2.15,1.27,1.43,1.9,3.35,1.9,5.76,0,4.95-2.63,9.21-7.9,12.79-5.27,3.58-14.07,5.37-26.42,5.37-4.42,0-9.13-.19-14.14-.58-.65,2.34-2.71,10.28-6.16,23.81l-8.51,33.77-5.18,20.59-5.38,23.52c4.36,.52,7.97,.78,10.83,.78,4.36,0,8.91-.55,13.66-1.66Z"/><path class="e" d="M530.79,126.1l-2.05,5.76c-4.04,1.04-7.49,1.56-10.36,1.56-3.06,0-7.1-.26-12.12-.78-4.76-.52-8.54-.78-11.34-.78-3.98,0-10.07,.45-18.28,1.37l1.66-4.98c6.12-1.56,9.95-3.25,11.52-5.08,1.56-1.82,4.16-9.61,7.81-23.38,3.64-13.76,5.47-22.82,5.47-27.18,0-8.72-1.69-17.67-5.08-26.84-3.38-9.18-7.61-16.59-12.69-22.25-9.56,3.51-16.41,6.82-20.54,9.91-4.13,3.09-7.45,6.88-9.95,11.37-2.51,4.49-3.76,8.43-3.76,11.81s1.5,6.41,4.49,9.27c2.54,2.47,3.81,4.65,3.81,6.54,0,1.69-.5,3.09-1.51,4.2-1.01,1.11-2.26,1.66-3.76,1.66-2.67,0-4.91-1.3-6.73-3.9-2.47-3.58-3.71-7.87-3.71-12.88,0-7.22,2.02-14.02,6.05-20.4,4.03-6.38,9.66-11.71,16.88-16.01,4.23-2.54,11.19-5.24,20.89-8.1,3.58-1.04,6.8-2.11,9.66-3.22,5.49,6.57,9.91,14.3,13.24,23.18,3.33,8.88,5.62,19.9,6.87,33.04,12.08-25.41,23.6-43.28,34.55-53.61,10.95-10.33,19.87-15.49,26.76-15.49,2.14,0,3.9,.62,5.26,1.85,1.36,1.24,2.05,2.77,2.05,4.59s-.8,3.41-2.39,4.59-4.7,1.92-9.33,2.24c-4.56,.33-8.08,1.24-10.55,2.74-4.89,3-10.63,8.54-17.24,16.62-6.61,8.08-13.14,18.18-19.59,30.3-6.45,12.12-11.35,24.74-14.72,37.85-3.36,13.11-5.17,21.65-5.43,25.62,3.07,.52,6.1,.78,9.11,.78,4.57,0,9.6-.65,15.08-1.95Z"/></g><path class="e" d="M128.39,127.83l-.92,5.22c-2.2,.18-4.12,.27-5.77,.27-2.38,0-5.25-.18-8.6-.55-5.73-.61-9.37-.92-10.89-.92-2.56,0-6.5,.4-11.81,1.19,1.89-4.76,3.48-9.76,4.76-15.01,.91-3.72,1.89-10.13,2.93-19.22-7.13-.06-18.18,.09-33.16,.46-15.53,23.67-26.91,38.54-34.14,44.61-7.23,6.07-14.11,9.11-20.64,9.11-3.42,0-5.96-.66-7.64-1.97-1.68-1.31-2.52-3.01-2.52-5.08,0-1.59,.49-2.9,1.46-3.94,.98-1.04,2.2-1.56,3.66-1.56,.85,0,2.01,.15,3.48,.46,3.66,.85,6.1,1.28,7.32,1.28,4.09,0,8.6-2.32,13.54-6.96,8.05-7.56,19.94-23.43,35.66-47.59,17.8-27.33,32.22-47.22,43.26-59.67-15.05,1.34-24.43,2.63-28.15,3.84-5.12,1.65-8.96,4.09-11.52,7.32-2.56,3.23-3.84,6.53-3.84,9.88,0,1.1,.4,2.65,1.19,4.67,.85,2.26,1.28,3.9,1.28,4.94,0,1.34-.52,2.53-1.56,3.57-1.04,1.04-2.29,1.56-3.75,1.56-2.07,0-3.74-.78-4.99-2.33-1.25-1.56-1.88-3.89-1.88-7,0-4.39,1.14-8.65,3.43-12.77,2.29-4.12,5.57-7.56,9.84-10.34,4.27-2.78,9.61-4.9,16.02-6.36,3.29-.79,9.09-1.5,17.39-2.11,7.21-.61,11.73-1.19,13.56-1.74,2.87-.79,5.62-2.35,8.25-4.67-1.83,7.51-3.15,14.06-3.94,19.68l-7.15,52.89-4.12,37.89c4.51,1.16,8.57,1.74,12.17,1.74,2.38,0,4.97-.27,7.78-.82Zm-29.47-35.78c2.93-24.77,5.86-42.86,8.79-54.27-7.73,10.26-12.51,16.74-14.34,19.42l-23.51,34.85c5.06,.18,12.28,.27,21.66,.27,2.31,0,4.78-.09,7.4-.27Z"/></g></g></g></svg>